<svg xmlns="http://www.w3.org/2000/svg" data-name="Layer 1" viewBox="0 0 512 640" x="0px" y="0px"><title>Electrocardiogram</title>
<g data-name="Group"><circle fill="#fff" data-name="Path" cx="405.922" cy="200.439" r="19.589"/>
<path fill="#fff" data-name="Path" d="M78,243h32.577l28.377-44.631a8,8,0,0,1,14.064,1.049l40.224,90.689,45.632-70.872a8,8,0,0,1,14.052,1.115l21.43,48.816,24.427-23.886a8,8,0,0,1,5.593-2.28H330V161H78Z"/>
<path fill="#fff" data-name="Path" d="M277.274,288.692a8,8,0,0,1-12.919-2.5l-20.092-45.767-45.6,70.815a8,8,0,0,1-6.725,3.669c-.205,0-.412-.008-.619-.024a8,8,0,0,1-6.7-4.732l-40.183-90.6-22.724,35.739A8,8,0,0,1,114.97,259H78v93H330V259H307.638Z"/>
<path fill="#fff" data-name="Compound Path" d="M438.954,87H69.66C43.193,87,22,108.64,22,135.107V376.893C22,403.36,43.193,425,69.66,425H442.34c26.467,0,47.66-21.64,47.66-48.107v-238.4C490,110.159,467.288,87,438.954,87ZM346,360a8,8,0,0,1-8,8H70a8,8,0,0,1-8-8V153a8,8,0,0,1,8-8H338a8,8,0,0,1,8,8Zm81.862-7H383.983a8,8,0,1,1,0-16h43.879a8,8,0,1,1,0,16Zm0-33H383.983a8,8,0,1,1,0-16h43.879a8,8,0,1,1,0,16Zm0-32H383.983a8,8,0,1,1,0-16h43.879a8,8,0,1,1,0,16Zm-21.94-51.972a35.589,35.589,0,1,1,35.589-35.589A35.629,35.629,0,0,1,405.922,236.028Z"/></g></svg>
