<svg xmlns="http://www.w3.org/2000/svg" xmlns:xlink="http://www.w3.org/1999/xlink" version="1.1" x="0px" y="0px" viewBox="0 0 50 62.5" enable-background="new 0 0 50 50" xml:space="preserve"><g>
<path fill="#fff" d="M35.2,42.3h-0.5L33.4,40c-2.6,1.1-5.4,1.7-8.4,1.7c-3.2,0-6.2-0.7-9-2l-1.6,2.5h-0.1c-3.2,0-5.7,2.6-5.7,5.7   c0,0.6,0.4,1,1,1h30.4c0.5,0,1-0.4,1-1C40.9,44.8,38.4,42.3,35.2,42.3z"/>
<path fill="#fff" d="M25,28.5c4.5,0,8.2-3.7,8.2-8.2c0-4.5-3.7-8.2-8.2-8.2s-8.2,3.7-8.2,8.2C16.8,24.9,20.5,28.5,25,28.5z M25,15.4   c2.7,0,5,2.2,5,5s-2.2,5-5,5s-5-2.2-5-5S22.3,15.4,25,15.4z"/>
<path fill="#fff" d="M25,39.7c10.7,0,19.4-8.7,19.4-19.4C44.4,9.7,35.7,1,25,1C14.3,1,5.6,9.7,5.6,20.4C5.6,31,14.3,39.7,25,39.7z M24.3,5.7   c0.4-0.4,1-0.4,1.4,0c0.4,0.4,0.4,1,0,1.4c-0.4,0.4-1,0.4-1.4,0C23.9,6.7,23.9,6,24.3,5.7z M25,10.2c5.6,0,10.2,4.6,10.2,10.2   c0,5.6-4.6,10.2-10.2,10.2c-5.6,0-10.2-4.6-10.2-10.2C14.8,14.8,19.4,10.2,25,10.2z"/><circle fill="#fff" cx="25" cy="20.4" r="3"/></g></svg>
