<svg xmlns="http://www.w3.org/2000/svg" xmlns:xlink="http://www.w3.org/1999/xlink" version="1.1" id="Layer_1" x="0px" y="0px" width="1296px" height="504px" viewBox="0 0 1296 504" enable-background="new 0 0 1296 504" xml:space="preserve">
<g>
	<path d="M310.333,394.403V321.63c0-3.78,1.123-6.615,3.375-8.505c2.248-1.891,5.154-2.837,8.72-2.837   c3.675,0,6.651,0.937,8.927,2.806c2.278,1.87,3.415,4.715,3.415,8.536v72.773c0,3.822-1.136,6.679-3.415,8.567   c-2.276,1.891-5.252,2.835-8.927,2.835c-3.512,0-6.404-0.954-8.681-2.865C311.468,401.029,310.333,398.184,310.333,394.403z"/>
	<path d="M380.929,345.385v2.079c3.95-3.992,8.271-6.92,12.961-8.79c4.69-1.868,10.079-2.802,16.167-2.802   c5.926,0,11.22,0.985,15.883,2.959c4.661,1.976,8.145,4.77,10.448,8.382c1.482,2.101,2.44,4.367,2.88,6.805   c0.438,2.437,0.658,5.545,0.658,9.325v32.007c0,3.444-1.027,6.049-3.086,7.813c-2.057,1.765-4.729,2.645-8.022,2.645   c-3.347,0-6.062-0.901-8.146-2.709c-2.084-1.806-3.126-4.388-3.126-7.748v-28.669c0-5.67-1.028-10.007-3.087-13.011   c-2.056-3.004-6.159-4.505-12.301-4.505c-4.005,0-7.651,0.915-10.944,2.739c-3.29,1.829-5.707,4.338-7.241,7.528   c-1.097,2.563-1.646,7.354-1.646,14.365v21.551c0,3.484-1.056,6.102-3.166,7.844c-2.114,1.744-4.843,2.613-8.189,2.613   c-3.236,0-5.897-0.901-7.982-2.709c-2.084-1.806-3.125-4.388-3.125-7.748v-49.713c0-3.275,0.93-5.724,2.796-7.34   c1.865-1.617,4.416-2.425,7.652-2.425c1.975,0,3.757,0.354,5.35,1.069c1.589,0.714,2.865,1.786,3.826,3.216   C380.451,341.584,380.929,343.326,380.929,345.385z"/>
	<path d="M463.541,337.385h2.47v-10.336c0-2.771,0.093-4.945,0.286-6.521c0.193-1.576,0.728-2.932,1.606-4.063   c0.876-1.177,2.139-2.133,3.784-2.869c1.646-0.732,3.482-1.102,5.513-1.102c2.853,0,5.431,0.818,7.734,2.459   c1.536,1.092,2.511,2.423,2.919,3.999c0.413,1.575,0.616,3.813,0.616,6.709v11.723h8.231c3.181,0,5.605,0.573,7.279,1.732   c1.674,1.151,2.512,2.634,2.512,4.438c0,2.313-1.192,3.929-3.581,4.854c-2.383,0.922-5.799,1.385-10.243,1.385h-4.198v31.631   c0,2.688,0.126,4.755,0.373,6.206c0.246,1.448,0.904,2.624,1.974,3.527c1.07,0.903,2.811,1.354,5.228,1.354   c1.316,0,3.096-0.178,5.348-0.537c2.247-0.354,4.002-0.535,5.265-0.535c1.812,0,3.442,0.559,4.896,1.672   c1.452,1.112,2.18,2.488,2.18,4.125c0,2.771-1.976,4.895-5.925,6.365c-3.947,1.471-9.626,2.203-17.032,2.203   c-7.022,0-12.343-0.901-15.963-2.709c-3.621-1.806-5.994-4.304-7.118-7.496c-1.123-3.191-1.685-7.455-1.685-12.789v-33.019h-2.964   c-3.237,0-5.705-0.586-7.406-1.763c-1.7-1.178-2.55-2.667-2.55-4.476c0-1.806,0.891-3.287,2.673-4.438   C457.546,337.958,460.138,337.385,463.541,337.385z"/>
	<path d="M584.66,375.06h-43.938c0.055,3.908,1.083,7.354,3.084,10.334c2.002,2.983,4.663,5.229,7.981,6.742   s6.982,2.269,10.987,2.269c2.687,0,5.141-0.241,7.364-0.725c2.221-0.482,4.372-1.239,6.457-2.269   c2.086-1.029,4.004-2.133,5.762-3.31c1.756-1.175,4.032-2.771,6.828-4.786c1.153-0.759,2.802-1.136,4.938-1.136   c2.303,0,4.168,0.484,5.595,1.448c1.426,0.967,2.138,2.331,2.138,4.096c0,1.555-0.794,3.369-2.384,5.451   c-1.593,2.078-3.991,4.074-7.201,5.984c-3.208,1.911-7.24,3.498-12.095,4.758s-10.437,1.889-16.744,1.889   c-14.429,0-25.646-3.147-33.654-9.447c-8.01-6.302-12.014-14.851-12.014-25.646c0-5.083,0.988-9.796,2.963-14.146   c1.977-4.347,4.855-8.075,8.64-11.184c3.785-3.107,8.444-5.493,13.99-7.149c5.537-1.661,11.684-2.491,18.43-2.491   c8.775,0,16.305,1.417,22.585,4.255c6.281,2.834,10.985,6.498,14.111,10.994c3.126,4.494,4.69,9.074,4.69,13.732   c0,4.328-1.619,7.134-4.854,8.414C595.081,374.42,590.528,375.06,584.66,375.06z M540.722,365.294h40.729   c-0.55-5.881-2.62-10.28-6.212-13.199c-3.595-2.92-8.325-4.378-14.193-4.378c-5.594,0-10.19,1.48-13.781,4.44   C543.67,355.12,541.49,359.498,540.722,365.294z"/>
	<path d="M644.398,380.983v14.365c0,3.484-1.073,6.102-3.211,7.844c-2.139,1.744-4.854,2.613-8.146,2.613   c-3.238,0-5.898-0.88-7.983-2.645c-2.084-1.765-3.126-4.368-3.126-7.813v-47.886c0-7.729,3.647-11.592,10.944-11.592   c3.728,0,6.415,0.899,8.065,2.708c1.645,1.806,2.548,4.472,2.712,8c2.688-3.528,5.441-6.194,8.271-8   c2.824-1.809,6.595-2.708,11.313-2.708c4.718,0,9.298,0.899,13.743,2.708c4.442,1.806,6.665,4.2,6.665,7.183   c0,2.103-0.951,3.833-2.839,5.199c-1.895,1.364-3.938,2.048-6.134,2.048c-0.823,0-2.812-0.391-5.964-1.167   c-3.154-0.776-5.937-1.166-8.352-1.166c-3.291,0-5.979,0.662-8.063,1.985c-2.086,1.322-3.705,3.288-4.856,5.891   c-1.15,2.604-1.948,5.702-2.387,9.294C644.614,371.438,644.398,375.815,644.398,380.983z"/>
	<path d="M748.482,396.105c-5.431,3.23-10.683,5.658-15.757,7.276c-5.073,1.616-10.766,2.424-17.071,2.424   c-5.76,0-10.819-0.868-15.183-2.613c-4.361-1.742-7.723-4.105-10.08-7.087c-2.357-2.984-3.534-6.217-3.534-9.704   c0-4.706,1.943-8.716,5.84-12.034c3.894-3.318,9.241-5.545,16.042-6.679c1.429-0.253,4.968-0.816,10.617-1.701   c5.648-0.881,10.49-1.69,14.523-2.425c4.031-0.736,8.403-1.629,13.122-2.679c-0.273-4.536-1.468-7.864-3.578-9.986   c-2.114-2.12-6.488-3.182-13.125-3.182c-5.708,0-9.997,0.608-12.88,1.826c-2.878,1.218-5.349,3.046-7.402,5.482   c-2.058,2.437-3.511,4.042-4.359,4.817c-0.851,0.779-2.674,1.167-5.472,1.167c-2.522,0-4.702-0.621-6.543-1.857   c-1.839-1.241-2.757-2.827-2.757-4.761c0-3.021,1.398-5.964,4.195-8.819c2.798-2.855,7.159-5.209,13.086-7.058   c5.918-1.849,13.3-2.771,22.132-2.771c9.874,0,17.634,0.895,23.288,2.678c5.649,1.786,9.638,4.61,11.97,8.477   c2.331,3.863,3.497,8.988,3.497,15.373c0,4.031-0.014,7.455-0.041,10.27s-0.07,5.944-0.124,9.39c0,3.232,0.699,6.604,2.1,10.112   c1.398,3.506,2.1,5.765,2.1,6.772c0,1.763-1.086,3.371-3.252,4.82c-2.167,1.449-4.62,2.172-7.365,2.172   c-2.302,0-4.578-0.827-6.828-2.487C753.395,401.661,751.009,399.254,748.482,396.105z M747.003,371.216   c-3.29,0.925-8.079,1.901-14.36,2.933c-6.277,1.026-10.625,1.783-13.041,2.268c-2.411,0.483-4.719,1.43-6.909,2.834   c-2.193,1.408-3.29,3.371-3.29,5.892c0,2.604,1.286,4.82,3.862,6.647c2.581,1.828,5.955,2.741,10.124,2.741   c4.442,0,8.54-0.745,12.302-2.236c3.757-1.491,6.512-3.413,8.267-5.765c2.03-2.604,3.047-6.89,3.047-12.854L747.003,371.216   L747.003,371.216z"/>
	<path d="M872.403,384.513c0,2.141-0.839,4.431-2.511,6.867c-1.674,2.437-4.227,4.755-7.652,6.962   c-3.432,2.205-7.75,3.98-12.961,5.324c-5.213,1.345-11.08,2.016-17.609,2.016c-13.875,0-24.709-3.098-32.497-9.294   c-7.794-6.193-11.685-14.501-11.685-24.918c0-7.058,1.779-13.296,5.349-18.713c3.563-5.42,8.72-9.607,15.468-12.571   c6.745-2.96,14.81-4.441,24.189-4.441c5.813,0,11.15,0.652,16.004,1.954s8.967,2.981,12.342,5.041   c3.375,2.058,5.951,4.253,7.737,6.584c1.78,2.331,2.674,4.505,2.674,6.521c0,2.06-1.003,3.805-3.004,5.23   c-2.006,1.429-4.432,2.141-7.285,2.141c-1.864,0-3.413-0.365-4.647-1.102c-1.232-0.733-2.616-1.922-4.154-3.561   c-2.745-3.19-5.606-5.588-8.597-7.183c-2.992-1.598-6.792-2.395-11.398-2.395c-6.636,0-11.983,1.985-16.043,5.952   c-4.063,3.972-6.088,9.399-6.088,16.287c0,3.236,0.519,6.208,1.561,8.915c1.043,2.712,2.552,5.021,4.527,6.932   c1.973,1.913,4.361,3.36,7.157,4.35c2.797,0.987,5.869,1.479,9.216,1.479c4.497,0,8.352-0.797,11.563-2.394   c3.205-1.597,6.044-4.032,8.517-7.31c1.367-1.933,2.849-3.443,4.439-4.535c1.59-1.095,3.542-1.64,5.844-1.64   c2.741,0,5.021,0.799,6.83,2.396C871.496,381.004,872.403,382.704,872.403,384.513z"/>
	<path d="M893.219,337.385h2.467v-10.336c0-2.771,0.097-4.945,0.293-6.521c0.188-1.575,0.725-2.932,1.602-4.063   c0.875-1.177,2.137-2.133,3.784-2.869c1.646-0.732,3.48-1.102,5.514-1.102c2.854,0,5.433,0.818,7.737,2.459   c1.529,1.092,2.508,2.423,2.916,3.999c0.415,1.575,0.621,3.813,0.621,6.709v11.723h8.225c3.183,0,5.613,0.573,7.285,1.732   c1.675,1.151,2.51,2.634,2.51,4.438c0,2.313-1.193,3.929-3.58,4.854c-2.388,0.922-5.801,1.385-10.243,1.385h-4.195v31.631   c0,2.688,0.122,4.755,0.368,6.206c0.246,1.448,0.905,2.624,1.977,3.527c1.066,0.903,2.811,1.354,5.225,1.354   c1.315,0,3.101-0.178,5.35-0.537c2.249-0.354,4.003-0.535,5.266-0.535c1.813,0,3.442,0.559,4.896,1.672   c1.45,1.112,2.18,2.488,2.18,4.125c0,2.771-1.975,4.895-5.922,6.365c-3.952,1.471-9.631,2.203-17.033,2.203   c-7.022,0-12.343-0.901-15.961-2.709c-3.624-1.806-5.997-4.304-7.12-7.496c-1.125-3.191-1.689-7.455-1.689-12.789v-33.019h-2.96   c-3.236,0-5.703-0.586-7.406-1.763c-1.701-1.178-2.547-2.667-2.547-4.476c0-1.806,0.891-3.287,2.672-4.438   C887.227,337.958,889.816,337.385,893.219,337.385z"/>
	<path d="M962.991,327.868c-3.126,0-5.8-0.734-8.021-2.206c-2.223-1.468-3.337-3.549-3.337-6.236c0-2.436,1.141-4.441,3.416-6.016   c2.274-1.577,4.922-2.364,7.94-2.364c2.908,0,5.484,0.715,7.734,2.144c2.246,1.429,3.373,3.507,3.373,6.236   c0,2.646-1.101,4.714-3.289,6.207C968.615,327.123,966.007,327.868,962.991,327.868z M974.1,345.637v49.713   c0,3.444-1.07,6.049-3.209,7.813c-2.14,1.765-4.854,2.645-8.146,2.645s-5.965-0.901-8.023-2.709   c-2.057-1.806-3.087-4.388-3.087-7.748v-49.209c0-3.401,1.03-5.966,3.087-7.688c2.06-1.723,4.732-2.581,8.023-2.581   s6.006,0.858,8.146,2.581C973.028,340.175,974.1,342.57,974.1,345.637z"/>
	<path d="M1013.181,346.58l18.186,39.063l19.586-40.765c1.538-3.275,3.043-5.597,4.524-6.961c1.479-1.365,3.728-2.047,6.744-2.047   c2.853,0,5.283,0.732,7.283,2.204c2.004,1.47,3.006,3.172,3.006,5.104c0,0.756-0.181,1.638-0.537,2.646   c-0.357,1.009-0.771,1.955-1.234,2.836c-0.466,0.883-0.999,1.892-1.604,3.023l-21.558,40.954c-0.604,1.178-1.387,2.667-2.345,4.476   c-0.961,1.805-2.03,3.35-3.21,4.631c-1.181,1.28-2.632,2.278-4.358,2.993c-1.729,0.715-3.825,1.068-6.298,1.068   c-3.183,0-5.716-0.557-7.607-1.668c-1.896-1.113-3.294-2.332-4.198-3.652c-0.903-1.325-2.427-3.939-4.567-7.848l-21.391-40.514   c-0.494-1.008-1.001-2.016-1.521-3.023c-0.521-1.01-0.963-2.036-1.315-3.088c-0.356-1.049-0.537-1.953-0.537-2.709   c0-1.176,0.467-2.341,1.396-3.496c0.937-1.154,2.224-2.101,3.867-2.834c1.647-0.735,3.431-1.103,5.349-1.103   c3.732,0,6.297,0.817,7.696,2.456C1009.934,339.967,1011.48,342.717,1013.181,346.58z"/>
	<path d="M1149.113,375.06h-43.939c0.053,3.908,1.08,7.354,3.087,10.334c1.997,2.983,4.658,5.229,7.981,6.742   c3.316,1.513,6.979,2.269,10.984,2.269c2.688,0,5.143-0.241,7.364-0.725c2.22-0.482,4.37-1.239,6.457-2.269   c2.084-1.029,4.006-2.133,5.763-3.31c1.755-1.175,4.028-2.771,6.827-4.786c1.152-0.759,2.798-1.136,4.937-1.136   c2.305,0,4.17,0.484,5.599,1.448c1.425,0.967,2.138,2.331,2.138,4.096c0,1.555-0.797,3.369-2.389,5.451   c-1.592,2.078-3.987,4.074-7.199,5.984c-3.21,1.911-7.236,3.498-12.094,4.758c-4.854,1.26-10.438,1.889-16.746,1.889   c-14.427,0-25.643-3.147-33.651-9.447c-8.012-6.302-12.014-14.851-12.014-25.646c0-5.083,0.988-9.796,2.962-14.146   c1.976-4.347,4.855-8.075,8.641-11.184c3.782-3.107,8.443-5.493,13.984-7.149c5.543-1.661,11.687-2.491,18.434-2.491   c8.775,0,16.308,1.417,22.588,4.255c6.281,2.834,10.983,6.498,14.11,10.994c3.129,4.494,4.69,9.074,4.69,13.732   c0,4.328-1.62,7.134-4.854,8.414C1159.534,374.42,1154.98,375.06,1149.113,375.06z M1105.174,365.294h40.731   c-0.552-5.881-2.622-10.28-6.216-13.199c-3.59-2.92-8.323-4.378-14.192-4.378c-5.596,0-10.19,1.48-13.781,4.44   C1108.121,355.12,1105.941,359.498,1105.174,365.294z"/>
</g>
<path fill="none" stroke="#8C2332" stroke-width="2" stroke-miterlimit="10" d="M219.756,224.899"/>
<path fill="#8C2232" d="M280.344,287.43c-2.145,3.994-4.787,5.975-7.938,5.975c-2.873,0-5.292-1.527-7.294-4.646  c-2.015-3.081-3.004-6.846-3.004-11.27c0-3.963,0.712-7.187,2.148-9.594l52.129-108.398c2.441-5.067,5.666-9.213,9.648-12.425  c4.013-3.188,8.303-4.788,12.882-4.788c4.308,0,8.376,1.416,12.231,4.302c3.864,2.858,7.017,6.851,9.441,11.922l52.152,107.722  c0.854,1.553,1.557,3.258,2.137,5.153c0.578,1.851,0.864,3.902,0.864,6.106c0,4.423-1.003,8.188-3,11.269  c-2.017,3.119-4.44,4.647-7.314,4.647c-3.429,0-6.141-2.101-8.157-6.313L347.29,184.016c-1.008-1.754-2.26-3.697-3.765-5.783  c-1.5-2.117-3.034-3.165-4.612-3.165c-1.575,0-3.104,1.048-4.609,3.165c-1.5,2.086-2.673,4.028-3.53,5.783L280.344,287.43  L280.344,287.43z"/>
<path fill="#8C2232" d="M774.303,164.796c0-4.403,1.008-8.18,2.995-11.275c2.017-3.06,4.435-4.614,7.302-4.614  c2.874,0,5.292,1.554,7.297,4.614c2.015,3.096,3.006,6.872,3.006,11.275v96.46c0,9.046-1.969,16.661-5.898,22.87  c-3.939,6.194-8.83,9.278-14.7,9.278c-2.009,0-3.959-0.45-5.898-1.327c-1.933-0.908-3.696-2.099-5.257-3.659l-98.271-92.787  c-2.717-2.44-4.957-4.373-6.757-5.797c-1.792-1.444-3.256-2.168-4.396-2.168c-2.139,0-3.51,2.122-4.082,6.298  c-0.559,4.203-0.839,10.295-0.839,18.247v65.278c0,4.423-1.008,8.188-3.014,11.269c-2.018,3.119-4.436,4.647-7.291,4.647  c-2.875,0-5.292-1.528-7.313-4.647c-2-3.08-3.008-6.846-3.008-11.269v-96.446c0-9.056,1.982-16.667,5.917-22.866  c3.912-6.204,8.828-9.271,14.709-9.271c1.974,0,3.948,0.432,5.873,1.311c1.94,0.894,3.695,2.096,5.266,3.65l98.28,92.813  c2.706,2.412,4.956,4.345,6.756,5.797c1.772,1.435,3.248,2.166,4.387,2.166c2.148,0,3.501-2.096,4.07-6.322  c0.589-4.185,0.869-10.264,0.869-18.213L774.303,164.796L774.303,164.796z"/>
<path fill="#8C2232" d="M816.343,164.796c0-4.403,1.009-8.18,3.007-11.275c2.006-3.06,4.424-4.614,7.307-4.614h152.13  c2.848,0,5.274,1.554,7.29,4.614c1.989,3.096,2.989,6.872,2.989,11.275c0,4.44-1,8.187-2.989,11.269  c-2.016,3.114-15.914,4.646-7.29,4.646h-152.13c-2.883,0-5.301-1.533-7.307-4.646C817.352,172.982,816.343,169.236,816.343,164.796  L816.343,164.796z M842.523,293.404c-3.152,0-6.291-1.057-9.436-3.129c-3.156-2.121-5.939-5.051-8.382-8.813  c-2.438-3.74-4.435-8.279-5.992-13.568c-1.598-5.321-2.372-11.277-2.372-17.905v-29.813c0-5.975,1.111-9.94,3.323-11.943  c2.224-1.982,5.694-2.979,10.416-2.979h143.973c2.864,0,5.281,1.535,7.3,4.637c1.995,3.091,3.004,6.83,3.004,11.268  c0,4.403-1.008,8.161-3.004,11.272c-2.019,3.066-4.436,4.63-7.3,4.63H836.953v16.244c0,2.213,0.596,4.116,1.804,5.797  c1.229,1.64,2.835,2.479,4.832,2.479h135.196c2.848,0,5.273,1.551,7.29,4.647c1.989,3.082,2.989,6.846,2.989,11.261  c0,4.423-1,8.188-2.989,11.269c-2.017,3.119-4.442,4.647-7.29,4.647L842.523,293.404L842.523,293.404z"/>
<path fill="#8C2232" d="M1039.001,237.06c-4.014,0-7.72-1.172-11.164-3.496c-3.426-2.324-6.431-5.455-8.998-9.449  c-2.573-3.958-4.621-8.603-6.122-13.904c-1.495-5.297-2.249-11.035-2.249-17.242c0-6.181,0.754-11.926,2.249-17.214  c1.501-5.3,3.548-9.947,6.122-13.917c2.567-3.98,5.572-7.143,8.998-9.437c3.444-2.324,7.15-3.494,11.164-3.494H1169.2  c2.859,0,5.298,1.554,7.297,4.645c2.002,3.084,2.999,6.842,2.999,11.274c0,4.411-0.997,8.157-2.999,11.262  c-1.999,3.092-4.438,4.625-7.297,4.625h-130.638c-2.148,0-4.022,1.171-5.677,3.494c-1.649,2.324-2.464,5.25-2.464,8.763  c0,3.31,0.813,6.207,2.464,8.635c1.653,2.412,3.527,3.63,5.677,3.63h118.623c3.994,0,7.771,1.169,11.264,3.487  c3.506,2.321,6.547,5.462,9.127,9.454c2.567,3.96,4.606,8.642,6.097,14.055c1.502,5.434,2.259,11.233,2.259,17.407  c0,6.199-0.757,11.917-2.259,17.247c-1.489,5.283-3.528,9.94-6.097,13.891c-2.58,4.004-5.621,7.086-9.127,9.295  c-3.493,2.205-7.27,3.307-11.264,3.307h-129.984c-2.872,0-5.29-1.552-7.296-4.631c-2.011-3.098-2.999-6.852-2.999-11.276  c0-4.409,0.988-8.186,2.999-11.266c2.006-3.089,4.424-4.649,7.296-4.649h130.85c2.143,0,3.994-1.146,5.58-3.472  c1.568-2.315,2.357-5.138,2.357-8.444c0-3.541-0.789-6.522-2.357-8.948c-1.586-2.41-3.438-3.628-5.58-3.628h-119.05V237.06z"/>
<path fill="#8C2232" d="M488.489,221.158c0-4.438,0.992-8.177,3.008-11.268c2.001-3.102,4.424-4.637,7.293-4.637h82.184  c3.561,0,6.934,1.035,10.081,3.135c3.157,2.098,5.897,4.986,8.26,8.614c2.349,3.641,4.187,7.943,5.475,12.933  c1.284,4.965,1.926,10.208,1.926,15.75v7.28c0,5.523-0.642,10.753-1.926,15.758c-1.288,4.957-3.126,9.278-5.475,12.908  c-2.362,3.651-5.103,6.523-8.26,8.645c-3.147,2.072-6.521,3.129-10.081,3.129H469.178c-5.856,0-11.078-2.235-15.663-6.623  c-4.565-4.422-8.459-10.106-11.684-17.069c-3.209-6.987-5.695-14.756-7.401-23.373c-1.723-8.607-2.581-17.02-2.581-25.181  c0-8.389,0.893-16.849,2.668-25.372c1.812-8.496,4.411-16.225,7.852-23.196c3.429-6.937,7.571-12.667,12.433-17.056  c4.87-4.424,10.389-6.628,16.517-6.628h125.107c2.845,0,5.296,1.554,7.294,4.614c1.986,3.096,2.995,6.872,2.995,11.275  c0,4.44-1.009,8.187-2.995,11.269c-1.998,3.114-4.451,4.646-7.294,4.646h-120.38c-5.006,0-9.047,1.372-12.109,4.144  c-3.094,2.744-5.514,6.13-7.3,10.095c-1.788,3.99-3.002,8.363-3.646,13.105c-0.641,4.742-0.979,9.123-0.979,13.103  c0,3.977,0.339,8.345,0.979,13.078c0.644,4.763,1.857,9.135,3.646,13.104c1.787,3.984,4.206,7.336,7.3,10.081  c3.063,2.785,7.104,4.16,12.109,4.16h104.066c1.723,0,3.254-1.221,4.617-3.627c1.362-2.438,2.032-5.332,2.032-8.638  c0-3.309-0.605-6.178-1.817-8.611c-1.214-2.426-2.83-3.645-4.832-3.645H498.79c-2.869,0-5.292-1.563-7.293-4.63  C489.48,229.319,488.489,225.561,488.489,221.158L488.489,221.158z"/>
<polyline fill="#8C2232" points="267.438,222.341 297.194,223.003 324.69,222.995 388.282,222.991 388.869,231.956 394.087,240.924   191.809,239.889 188.969,252.104 187.194,259.732 186.309,263.544 185.423,267.359 183.648,274.979 177.418,301.652 176.53,305.462   175.635,309.271 173.664,312.258 172.349,314.254 168.856,315.272 166.532,315.954 164.306,315.009 164.306,315.009   160.968,313.597 159.899,311.465 158.299,308.273 157.271,298.07 156.241,287.868 154.189,267.445 152.148,247.031 149.133,216.4   144.962,172.765 143.679,184.465 141.199,206.403 139.528,221.031 137.839,235.652 136.99,242.962 136.15,250.273 135.454,251.81   134.984,252.835 133.48,253.657 132.472,254.189 129.633,253.797 127.617,251.804 126.759,249.988 125.037,246.376 120.064,235.866   112.544,235.806 102.371,235.716 98.556,235.68 96.18,235.502 92.835,232.95 85.653,226.591 80.697,222.191 79.507,221.382   66.591,223.237 54.68,229.375 51.27,231.125 49.028,232.204 45.347,232.162 38.739,232.01 15.623,231.452 15.015,231.212   14.767,230.616 15.011,230.028 15.617,229.775 23.868,229.473 32.124,229.169 40.377,228.883 48.092,228.607 51.841,226.391   55.968,223.961 60.094,221.535 64.257,219.088 64.514,218.947 64.765,218.807 65.009,218.668 65.261,218.533 65.533,218.386   65.813,218.252 66.092,218.113 66.371,217.972 66.655,217.843 66.946,217.712 67.229,217.59 67.519,217.459 67.817,217.334   68.117,217.21 68.416,217.09 68.719,216.964 69.03,216.862 69.339,216.75 69.65,216.639 69.961,216.534 70.274,216.436   70.596,216.338 70.914,216.246 71.236,216.148 71.558,216.078 71.886,215.994 72.206,215.911 72.54,215.83 72.868,215.766   73.204,215.71 73.532,215.644 73.868,215.578 74.202,215.542 74.54,215.498 74.876,215.46 75.212,215.418 75.546,215.402   75.882,215.386 76.22,215.368 76.556,215.359 76.892,215.362 77.575,215.386 77.918,215.391 78.247,215.428 78.917,215.508   79.249,215.544 79.427,215.578 79.608,215.614 79.786,215.658 79.967,215.694 80.135,215.732 80.303,215.781 80.466,215.822   80.639,215.862 80.803,215.911 80.967,215.966 81.128,216.03 81.295,216.078 81.453,216.143 81.621,216.202 81.783,216.268   81.957,216.33 82.279,216.482 82.445,216.563 82.609,216.634 82.759,216.72 82.917,216.807 83.075,216.888 83.239,216.973   83.393,217.076 83.545,217.174 83.851,217.366 83.975,217.468 84.107,217.552 84.229,217.655 84.427,217.798 88.209,220.807   91.962,223.807 95.718,226.803 98.39,228.949 103.531,228.744 109.889,228.497 116.248,228.255 122.605,228.011 123.727,228.146   124.777,228.592 125.648,229.304 126.297,230.216 128.303,234 129.849,212.774 132.616,176.087 135.468,139.401 138.404,102.717   140.666,98.261 145.427,96.443 150.199,98.211 152.523,102.637 158.514,153.599 164.394,204.562 170.013,254.407 171.401,248.28   175.735,229.196 176.876,226.479 178.876,224.268 181.506,222.823 184.477,222.313 192.399,222.215 214.521,221.955 "/>
<path fill="#8C2232" d="M260.027,250.56"/>
<path fill="#8C2232" d="M231.269,221.557"/>
<g>
	<path fill="#8C222F" d="M1256.219,205.993c-2.956-1.492-4.301-5.503-3.009-8.931c8.081-21.514,7.529-47.056-3.41-68.834   c-10.197-20.341-27.253-33.122-45.784-36.764c-3.186-0.625-5.313-4.12-4.788-7.809c0.537-3.697,3.548-6.183,6.729-5.561   c21.801,4.276,41.914,19.343,53.932,43.297c12.891,25.697,13.525,55.793,4.011,81.111   C1262.604,205.926,1259.168,207.496,1256.219,205.993L1256.219,205.993z"/>
	<path fill="#8C222F" d="M1237.738,195.379c-2.489-1.268-3.624-4.659-2.522-7.545c5.53-14.592,5.157-31.951-2.259-46.752   c-6.906-13.774-18.482-22.457-31.041-24.907c-2.683-0.521-4.486-3.477-4.04-6.584c0.446-3.116,2.989-5.227,5.669-4.696   c15.322,2.985,29.487,13.593,37.921,30.435c9.073,18.095,9.51,39.313,2.765,57.123   C1243.13,195.336,1240.223,196.646,1237.738,195.379L1237.738,195.379z"/>
	<path fill="#8C222F" d="M1222.389,186.352c-2.069-0.928-3.09-3.632-2.292-6.033c2.983-8.898,2.575-19.244-1.858-28.094   c-4.122-8.191-10.854-13.525-18.271-15.384c-2.166-0.536-3.545-3.014-3.072-5.53c0.462-2.516,2.594-4.121,4.765-3.583   c9.532,2.385,18.203,9.265,23.511,19.792c5.73,11.436,6.229,24.77,2.412,36.176C1226.776,186.095,1224.448,187.29,1222.389,186.352   L1222.389,186.352z"/>
</g>
<text transform="matrix(1 0 0 1 1178.8086 391.3564)" font-family="'MyriadPro-Regular'" font-size="123.3975">®</text>
</svg>
